# xmcd
#
# Track frame offsets:
#	187
#	17030
#	31992
#	46062
#	62632
#	80662
#	99307
#	110752
#	122962
#	141495
#
# Disc length: 2128 seconds
#
# Revision: 4
# Processed by: cddbd v1.5.2PL0 Copyright (c) Steve Scherf et al.
# Submitted via: audiograbber 1.83.01
#
DISCID=87084e0a
DTITLE=The Oak Ridge Boys - Greatest Hits 2
DYEAR=1984
DGENRE=Country
TTITLE0=Elvira
TTITLE1=Ozark Mountain Jubilee
TTITLE2=Love Song
TTITLE3=Fancy Free
TTITLE4=Everyday
TTITLE5=Beautiful You
TTITLE6=Thank God For Kids
TTITLE7=American Made
TTITLE8=Make My Life With You
TTITLE9=I Guess It Never Hurts To Hurt Sometimes
EXTD=
EXTT0=
EXTT1=
EXTT2=
EXTT3=
EXTT4=
EXTT5=
EXTT6=
EXTT7=
EXTT8=
EXTT9=
PLAYORDER=
